# xmcd
#
# Track frame offsets:
# 183
# 11880
# 26473
# 38673
# 48365
# 60923
# 72080
# 84025
# 96423
# 110723
# 125093
# 135708
# 147120
# 156838
#
# Disc length: 2288 seconds
#
#
# Revision: 0
# Processed by: cddbd v1.4PL0 Copyright (c) Steve Scherf et al.
# Submitted via: FreeRIP 2.30 
#
DISCID=b708ee0e
DTITLE=Various Artist - Black and Soul - Soul Brothers
DYEAR=1995
DGENRE=Blues
TTITLE0=Hold on I'm coming - Hayes, Porter
TTITLE1=Do the funky chicken - Thomas
TTITLE2=The chokin' kid - Howard
TTITLE3=Got to get you off my mind - Burke, Moore
TTITLE4=Bring it on home to me - Cooke
TTITLE5=Cool Jerk - Starball
TTITLE6=Slip away - Armstrong, Terrel, Daniel
TTITLE7=Summertime - Gerswin, Heyward
TTITLE8=Patches - Mann, Kolber
TTITLE9=Tell it lke it is - Diamond, Davis
TTITLE10=Soul sister Brown sugar - Hayes, Porter
TTITLE11=Teenager's prayer - Allen
TTITLE12=Fly me to the moon - Howard
TTITLE13=Let my people go - McDuff, Evans
EXTD=
EXTT0=
EXTT1=
EXTT2=
EXTT3=
EXTT4=
EXTT5=
EXTT6=
EXTT7=
EXTT8=
EXTT9=
EXTT10=
EXTT11=
EXTT12=
EXTT13=
PLAYORDER=
